<svg width="64" height="64" viewBox="0 0 64 64" fill="none" xmlns="http://www.w3.org/2000/svg">
<path d="M53.42 53.5699H53.4202C55.74 53.5672 57.9639 52.6445 59.6042 51.0042C61.2445 49.3639 62.1672 47.14 62.17 44.8202V44.8199V19.1799V19.1796C62.1672 16.8599 61.2445 14.636 59.6042 12.9957C57.9639 11.3554 55.74 10.4327 53.4202 10.4299H53.42L10.58 10.4299L10.5797 10.4299C8.25993 10.4327 6.03599 11.3554 4.39569 12.9957C2.7554 14.636 1.83268 16.8599 1.82996 19.1796V19.1799L1.82996 44.8199L1.82996 44.8202C1.83268 47.14 2.7554 49.3639 4.39569 51.0042C6.03599 52.6445 8.25993 53.5672 10.5797 53.5699H10.58H53.42ZM6.86765 15.4676C7.85221 14.4831 9.18757 13.9299 10.58 13.9299H53.42C54.8123 13.9299 56.1477 14.4831 57.1323 15.4676C58.1168 16.4522 58.67 17.7875 58.67 19.1799V44.8199C58.67 46.2123 58.1168 47.5477 57.1323 48.5322C56.1477 49.5168 54.8123 50.0699 53.42 50.0699H10.58C9.18757 50.0699 7.85221 49.5168 6.86765 48.5322C5.88308 47.5477 5.32996 46.2123 5.32996 44.8199V19.1799C5.32996 17.7875 5.88308 16.4522 6.86765 15.4676Z" fill="#F7F7F7" stroke="#F7F7F7" stroke-width="2"/>
<path d="M32 38.33C33.9047 38.3329 35.7584 37.7149 37.2803 36.5697L37.2808 36.5694L60.6274 18.9119C60.8183 18.7772 60.9802 18.6057 61.1037 18.4074C61.228 18.2078 61.3109 17.9852 61.3472 17.7529C61.3836 17.5206 61.3728 17.2833 61.3154 17.0553C61.2581 16.8273 61.1554 16.6131 61.0134 16.4257C60.8714 16.2382 60.6931 16.0813 60.4892 15.9643C60.2852 15.8472 60.0598 15.7725 59.8263 15.7446C59.5928 15.7166 59.3561 15.736 59.1303 15.8016C58.9059 15.8668 58.697 15.9761 58.5156 16.1233L35.1705 33.7996C35.1702 33.7998 35.17 33.7999 35.1698 33.8001C34.2543 34.4834 33.1424 34.8525 32 34.8525C30.8576 34.8525 29.7459 34.4834 28.8303 33.8002C28.8301 33.8 28.8298 33.7998 28.8296 33.7996L5.48441 16.1233C5.30306 15.9761 5.09407 15.8668 4.86977 15.8016C4.64395 15.736 4.40723 15.7166 4.17375 15.7446C3.94027 15.7725 3.71481 15.8472 3.51085 15.9643C3.30689 16.0813 3.1286 16.2382 2.98663 16.4257C2.84467 16.6131 2.74194 16.8273 2.68458 17.0553C2.62722 17.2833 2.6164 17.5206 2.65278 17.7529C2.68916 17.9852 2.77199 18.2078 2.89632 18.4074C3.01983 18.6057 3.18179 18.7773 3.37262 18.9119L26.7192 36.5694L26.7197 36.5697C28.2416 37.7149 30.0954 38.3329 32 38.33ZM32 38.33C31.9999 38.33 31.9998 38.33 31.9996 38.33L32 38.08L32.0004 38.33C32.0003 38.33 32.0001 38.33 32 38.33Z" fill="#F7F7F7" stroke="#F7F7F7" stroke-width="2"/>
<path d="M23.7366 32.5365L23.7365 32.5366L5.3383 48.9449C5.33796 48.9452 5.33763 48.9455 5.33729 48.9458C5.01779 49.2361 4.60033 49.3947 4.16871 49.39C4.16816 49.39 4.16761 49.39 4.16707 49.39L4.17005 49.14C3.86582 49.1404 3.56865 49.0484 3.31797 48.876C3.06728 48.7036 2.87494 48.4591 2.76645 48.1749C2.65797 47.8906 2.63848 47.5801 2.71056 47.2846C2.78264 46.989 2.94289 46.7224 3.17005 46.52L23.7366 32.5365ZM23.7366 32.5365C24.0831 32.2271 24.2925 31.7927 24.3187 31.329C24.345 30.8652 24.1859 30.41 23.8765 30.0635C23.5672 29.717 23.1328 29.5076 22.669 29.4813C22.2053 29.4551 21.75 29.6141 21.4035 29.9235L3.00375 46.3333M23.7366 32.5365L3.00375 46.3333M3.00375 46.3333C3.00372 46.3333 3.00369 46.3334 3.00365 46.3334L3.00375 46.3333ZM59.833 49.39C59.4009 49.3951 58.9828 49.2364 58.6629 48.9459C58.6625 48.9455 58.6622 48.9452 58.6618 48.9449L40.2636 32.5366L40.2635 32.5365C39.917 32.2271 39.7076 31.7927 39.6814 31.329C39.6551 30.8652 39.8142 30.41 40.1236 30.0635C40.4329 29.717 40.8673 29.5076 41.3311 29.4813C41.7948 29.4551 42.25 29.6141 42.5965 29.9235C42.5965 29.9235 42.5965 29.9235 42.5966 29.9235L60.9863 46.3333L59.833 49.39ZM59.833 49.39C60.1833 49.3878 60.525 49.2806 60.8138 49.082C61.1062 48.8809 61.3307 48.5956 61.4572 48.264C61.5838 47.9324 61.6065 47.5702 61.5224 47.2253C61.4383 46.8806 61.2514 46.5695 60.9865 46.3335L59.833 49.39Z" fill="#F7F7F7" stroke="#F7F7F7" stroke-width="2"/>
</svg>
